<?xml version="1.0" encoding="UTF-8"?>
<svg version="1.1" xmlns="http://www.w3.org/2000/svg" width="1024" height="1024">
<path d="M0 0 C0.75531006 0.19384277 1.51062012 0.38768555 2.28881836 0.58740234 C6.88821997 1.81954328 11.09483185 3.42183825 15.4375 5.375 C16.99723997 6.00685638 18.55950344 6.63254411 20.125 7.25 C21.8960175 7.95787275 23.66684192 8.66622869 25.4375 9.375 C26.36691406 9.74496094 27.29632812 10.11492187 28.25390625 10.49609375 C36.20589507 13.72559653 43.79962476 17.47284098 51.4375 21.375 C52.47261719 21.87902344 53.50773437 22.38304687 54.57421875 22.90234375 C57.15849591 24.23150131 59.48848094 25.66164186 61.875 27.3125 C65.63763897 29.86981903 69.45745899 32.17327519 73.4375 34.375 C73.4375 35.035 73.4375 35.695 73.4375 36.375 C74.03353027 36.49488281 74.62956055 36.61476563 75.24365234 36.73828125 C78.73383088 37.75123313 81.2789699 40.12487932 84.0625 42.375 C84.68060547 42.86685791 85.29871094 43.35871582 85.93554688 43.86547852 C90.56225731 47.5806311 94.97243071 51.4980967 99.33203125 55.5234375 C101.52033374 57.53900159 101.52033374 57.53900159 104.625 59.4375 C107.93309675 61.7164111 110.14810161 64.37042676 112.71484375 67.43359375 C114.53970671 69.59428828 114.53970671 69.59428828 117.5 71.875 C120.41921494 74.35943824 122.34125205 76.74365143 124.5546875 79.83203125 C126.505159 82.46638176 128.55496939 84.99328002 130.63061523 87.52905273 C137.12306298 95.48756991 142.93147126 103.71113309 148.4375 112.375 C148.8794873 113.05900879 149.32147461 113.74301758 149.77685547 114.44775391 C178.35032892 158.78380376 190.29953105 210.92496036 190.5625 263.3125 C190.56725342 264.10140625 190.57200684 264.8903125 190.5769043 265.703125 C190.56027177 271.25222823 190.56027177 271.25222823 189.4375 272.375 C189.36442136 275.35295447 189.44131896 278.31881197 189.5 281.296875 C189.44199753 284.15349682 189.04724721 286.59527009 188.4375 289.375 C188.25024607 291.03947935 188.08350283 292.70639617 187.9375 294.375 C187.4865295 299.07203117 186.74865387 303.35002256 185.375 307.875 C184.55547592 310.93455656 184.24776325 313.24434356 184.4375 316.375 C183.7775 316.375 183.1175 316.375 182.4375 316.375 C182.7675 318.025 183.0975 319.675 183.4375 321.375 C182.7775 321.375 182.1175 321.375 181.4375 321.375 C181.4375 323.685 181.4375 325.995 181.4375 328.375 C180.7775 328.375 180.1175 328.375 179.4375 328.375 C179.7675 329.695 180.0975 331.015 180.4375 332.375 C179.7775 332.375 179.1175 332.375 178.4375 332.375 C178.31375 333.550625 178.19 334.72625 178.0625 335.9375 C177.44115646 340.94375364 176.02998757 345.59753729 174.4375 350.375 C173.7775 350.375 173.1175 350.375 172.4375 350.375 C172.31375 352.1075 172.31375 352.1075 172.1875 353.875 C171.6903674 357.81753772 170.48622456 360.71404061 168.60546875 364.18359375 C167.28539992 366.6603784 166.14282384 369.1867579 165 371.75 C162.62100084 377.03256024 160.06840281 382.21395237 157.4375 387.375 C156.7775 387.375 156.1175 387.375 155.4375 387.375 C154.4475 390.345 153.4575 393.315 152.4375 396.375 C151.7775 396.375 151.1175 396.375 150.4375 396.375 C150.1075 398.025 149.7775 399.675 149.4375 401.375 C148.7775 401.375 148.1175 401.375 147.4375 401.375 C147.375625 402.055625 147.31375 402.73625 147.25 403.4375 C146.17348615 407.32951162 144.18084968 410.40944754 141.4375 413.375 C140.7775 413.375 140.1175 413.375 139.4375 413.375 C139.33695313 414.16777344 139.33695313 414.16777344 139.234375 414.9765625 C138.09270828 418.41275548 135.91572807 420.95505496 133.6875 423.75 C133.25695312 424.30171875 132.82640625 424.8534375 132.3828125 425.421875 C124.48180566 435.49920707 124.48180566 435.49920707 120.4375 439.375 C117.07446176 442.67533753 113.91306758 446.0785314 110.8125 449.625 C105.78544684 455.18082468 100.31654756 459.75812084 94.4375 464.375 C92.70752428 465.83237349 90.97836752 467.29071964 89.25 468.75 C67.52909298 486.50474996 42.71249358 500.2207327 16.375 509.6875 C15.63572266 509.95457764 14.89644531 510.22165527 14.13476562 510.49682617 C11.11293821 511.55999691 8.6652056 512.375 5.4375 512.375 C5.4375 513.035 5.4375 513.695 5.4375 514.375 C-16.96617053 520.41875272 -39.82893429 525.33600616 -63.11328125 525.68359375 C-64.11332184 525.69881073 -65.11336243 525.71402771 -66.14370728 525.72970581 C-90.93720496 526.03617052 -114.35189071 524.83467548 -138.5625 519.375 C-139.6148584 519.14055176 -140.6672168 518.90610352 -141.75146484 518.66455078 C-149.76003344 516.83080678 -157.30559577 514.55564488 -164.91259766 511.44970703 C-169.47508964 509.59932102 -174.08415047 507.87065221 -178.6875 506.125 C-179.64398438 505.76148438 -180.60046875 505.39796875 -181.5859375 505.0234375 C-183.9111656 504.13985082 -186.23668843 503.25704944 -188.5625 502.375 C-188.5625 501.715 -188.5625 501.055 -188.5625 500.375 C-189.82126953 499.98634766 -189.82126953 499.98634766 -191.10546875 499.58984375 C-214.94254781 491.21319789 -235.2008656 474.2880605 -253.88452148 457.82958984 C-255.49351917 456.43479744 -257.13081512 455.0835743 -258.78125 453.73828125 C-261.15351803 451.72251979 -263.13471482 449.75375048 -265.125 447.375 C-267.14400831 444.99864509 -269.13890597 442.81140306 -271.375 440.625 C-273.39119704 438.55119733 -274.2959302 436.9081396 -275.5625 434.375 C-276.5525 434.045 -277.5425 433.715 -278.5625 433.375 C-280.22446899 431.42598973 -281.74696502 429.50147627 -283.25 427.4375 C-283.87358398 426.61088867 -283.87358398 426.61088867 -284.50976562 425.76757812 C-287.5625 421.64212592 -287.5625 421.64212592 -287.5625 419.375 C-288.2225 419.375 -288.8825 419.375 -289.5625 419.375 C-293.98750241 414.01481667 -297.53156272 407.90298822 -301.0390625 401.91796875 C-302.60136861 399.31011931 -304.26184459 396.78622957 -305.9375 394.25 C-312.72907986 383.62688726 -317.93000926 372.0765513 -322.5625 360.375 C-322.8622876 359.63830078 -323.1620752 358.90160156 -323.47094727 358.14257812 C-347.18929367 299.62935493 -347.18185735 236.95888848 -331.5625 176.375 C-330.9025 176.375 -330.2425 176.375 -329.5625 176.375 C-329.31757813 175.12847656 -329.07265625 173.88195312 -328.8203125 172.59765625 C-327.53450154 166.81150691 -325.51353076 161.35469518 -323.4375 155.8125 C-322.87869141 154.29946289 -322.87869141 154.29946289 -322.30859375 152.75585938 C-321.39837803 150.29360915 -320.48293712 147.83344342 -319.5625 145.375 C-318.9025 145.375 -318.2425 145.375 -317.5625 145.375 C-317.30984375 144.55644531 -317.0571875 143.73789062 -316.796875 142.89453125 C-313.12549328 132.42644603 -308.06616155 122.35366609 -301.5625 113.375 C-300.68430598 112.02290251 -299.80947163 110.66861867 -298.9375 109.3125 C-289.69816744 95.48968654 -279.34123908 82.11658218 -267.5625 70.375 C-265.99303285 68.61033861 -264.43068482 66.83932348 -262.875 65.0625 C-258.90036885 60.67041499 -254.80553935 56.91667581 -250.10546875 53.32421875 C-247.47959238 51.31145023 -244.96500003 49.19708523 -242.4375 47.0625 C-235.46810218 41.35759208 -228.06599914 36.34247948 -220.5625 31.375 C-219.91120117 30.94010254 -219.25990234 30.50520508 -218.58886719 30.05712891 C-208.79448428 23.55793723 -198.66364435 18.26657194 -187.94433594 13.45410156 C-186.28374663 12.70176406 -184.6312449 11.93142756 -182.98535156 11.14746094 C-176.12451878 7.9137399 -169.18125515 5.47952561 -161.9375 3.25 C-159.79933843 2.58117893 -157.6613151 1.91191574 -155.5234375 1.2421875 C-154.49855225 0.92531982 -153.47366699 0.60845215 -152.41772461 0.28198242 C-149.97179641 -0.49498408 -147.56635301 -1.33803241 -145.15234375 -2.20703125 C-139.16687014 -4.2147996 -132.96289038 -5.15147592 -126.75 -6.1875 C-125.45755371 -6.40365967 -124.16510742 -6.61981934 -122.83349609 -6.8425293 C-81.00326725 -13.68581938 -40.97814629 -10.552347 0 0 Z M-229.98828125 67.37890625 C-231.79496853 68.77984282 -233.66026083 70.10684056 -235.5625 71.375 C-235.5625 72.035 -235.5625 72.695 -235.5625 73.375 C-236.13452148 73.6225 -236.70654297 73.87 -237.29589844 74.125 C-239.92123698 75.57283858 -241.70507315 77.25856202 -243.828125 79.375 C-244.63636719 80.18066406 -245.44460938 80.98632812 -246.27734375 81.81640625 C-247.11394531 82.66074219 -247.95054687 83.50507813 -248.8125 84.375 C-249.63363281 85.18839844 -250.45476562 86.00179687 -251.30078125 86.83984375 C-256.82351801 92.38008523 -261.81206077 98.16298727 -266.5625 104.375 C-267.06555664 105.02936035 -267.56861328 105.6837207 -268.08691406 106.35791016 C-290.89007205 136.35655227 -306.64569867 170.54160895 -314.5625 207.375 C-314.78695801 208.3959375 -315.01141602 209.416875 -315.24267578 210.46875 C-328.21940499 272.2949472 -313.85801556 339.99706529 -279.625 392.625 C-272.46272397 402.98681738 -265.03252652 413.16670359 -256.40234375 422.359375 C-254.5625 424.375 -254.5625 424.375 -252.94140625 426.640625 C-252.48636719 427.21296875 -252.03132813 427.7853125 -251.5625 428.375 C-250.9025 428.375 -250.2425 428.375 -249.5625 428.375 C-249.0675 429.86 -249.0675 429.86 -248.5625 431.375 C-247.07544948 432.92116119 -247.07544948 432.92116119 -245.1875 434.4375 C-241.83286949 437.27374178 -238.58999714 440.19373985 -235.375 443.1875 C-208.1617244 467.8693081 -174.51813712 484.56582553 -139.42675781 494.81274414 C-137.75185574 495.31789075 -136.09671059 495.88747524 -134.4453125 496.46484375 C-131.31809222 497.45216397 -128.30783802 497.97774378 -125.0625 498.4375 C-118.60826903 499.3672166 -118.60826903 499.3672166 -115.875 499.83203125 C-81.65587935 505.44106164 -47.44534735 503.806852 -13.90771484 494.98925781 C-11.6889546 494.40812094 -9.46544709 493.85257958 -7.23828125 493.3046875 C-0.31922315 491.56220259 5.95966144 489.34227232 12.4375 486.375 C13.97657805 485.7027759 15.51695642 485.03352138 17.05859375 484.3671875 C37.72656681 475.32708089 56.68521103 464.37005051 74.4375 450.375 C75.24622559 449.73763916 76.05495117 449.10027832 76.88818359 448.44360352 C83.61976497 443.04442577 89.85686686 437.30660026 95.9375 431.1875 C96.85313721 430.26767334 97.76877441 429.34784668 98.7121582 428.40014648 C105.56005944 421.43773796 111.73921607 414.2915191 117.4375 406.375 C118.28926801 405.22835128 119.14215463 404.08253275 119.99609375 402.9375 C158.94476499 350.19143176 174.10966325 283.09078631 164.5 218.48828125 C156.24298328 168.33181959 132.7553197 121.83853176 97.4375 85.375 C96.65761719 84.55515625 95.87773438 83.7353125 95.07421875 82.890625 C89.5715428 77.22179365 83.60708124 72.29653618 77.4375 67.375 C76.26667731 66.40421233 75.09748011 65.43146179 73.9296875 64.45703125 C65.53813009 57.50621307 56.98228615 51.61978196 47.4375 46.375 C46.61282227 45.91625488 45.78814453 45.45750977 44.93847656 44.98486328 C18.70097875 30.48972105 -8.26350174 20.24879351 -37.875 15.5625 C-38.8681572 15.40411148 -38.8681572 15.40411148 -39.88137817 15.24252319 C-108.36553467 4.4988883 -175.88412486 24.95092915 -229.98828125 67.37890625 Z " fill="#4464E1" transform="translate(589.5625,233.625)"/>
<path d="M0 0 C5.90730983 0.55208503 10.76002513 2.27795432 16.1875 4.625 C17.02756592 4.9854541 17.86763184 5.3459082 18.7331543 5.71728516 C37.13154474 13.76271298 53.03037657 25.65281918 67 40 C67.495 40.44988281 67.99 40.89976562 68.5 41.36328125 C82.27588409 54.21439534 94.43524141 74.31390173 97 93 C97.33 93.33 97.66 93.66 98 94 C98.04063832 95.66617115 98.042721 97.33388095 98 99 C93.18765154 98.49530762 90.26641702 97.19391419 86.3125 94.4375 C85.26707031 93.71046875 84.22164063 92.9834375 83.14453125 92.234375 C82.10683594 91.49703125 81.06914062 90.7596875 80 90 C78.61361328 89.04867187 78.61361328 89.04867187 77.19921875 88.078125 C69.88708306 82.95645543 63.49714757 77.08651325 57 71 C51.54211647 66.05139081 45.86056944 61.46325775 40 57 C46.92753266 74.03914865 61.80980392 98.40490196 79 107 C79 107.66 79 108.32 79 109 C79.59135742 109.27602051 80.18271484 109.55204102 80.79199219 109.83642578 C82.88694127 110.9404204 84.51707303 112.10300308 86.328125 113.6171875 C86.95477051 114.13563232 87.58141602 114.65407715 88.22705078 115.18823242 C88.89462402 115.74486572 89.56219727 116.30149902 90.25 116.875 C100.48633648 125.29725758 111.04830189 133.22959174 121.875 140.875 C157.70869981 166.27420743 157.70869981 166.27420743 167 182 C167.61101562 183.03060547 167.61101562 183.03060547 168.234375 184.08203125 C174.25782389 195.14684498 174.79092303 208.59711317 171.5 220.625 C168.72934893 228.63020257 163.92021885 238.89888279 157 244 C151.81742365 244.03599011 148.14630712 241.5165851 144 238.6875 C143.40960937 238.29626953 142.81921875 237.90503906 142.2109375 237.50195312 C140.46741025 236.34408205 138.73342137 235.17292867 137 234 C135.85479163 233.23474099 134.70899928 232.47035486 133.5625 231.70703125 C132.716875 231.14371094 131.87125 230.58039063 131 230 C133.40304582 227.52829573 135.70451267 225.21422832 138.5 223.1875 C143.38006014 218.91744738 146.7488915 213.26441046 147.25 206.75 C146.71919194 198.78787906 143.3201153 194.67090701 137.69921875 189.3125 C133.32694751 185.56664679 128.60773356 182.37800993 123.81396484 179.20654297 C120.60129294 177.06966214 117.42786482 174.87565916 114.25 172.6875 C113.58299072 172.22947998 112.91598145 171.77145996 112.22875977 171.29956055 C105.11300752 166.40679203 98.05835365 161.42866538 91.01660156 156.43017578 C89.1043916 155.07403462 87.18922235 153.72217772 85.2734375 152.37109375 C62.30597618 136.13265147 39.08067613 118.40795669 23 95 C22.27103516 93.94039062 22.27103516 93.94039062 21.52734375 92.859375 C4.68269982 68.03568921 -2.02142909 42.91821453 -2.25 13.0625 C-2.2593457 12.2159082 -2.26869141 11.36931641 -2.27832031 10.49707031 C-2.27413086 9.70526367 -2.26994141 8.91345703 -2.265625 8.09765625 C-2.26336914 7.40164307 -2.26111328 6.70562988 -2.25878906 5.98852539 C-1.95653841 3.66604276 -1.14380014 2.0283427 0 0 Z " fill="#4666E6" transform="translate(393,296)"/>
<path d="M0 0 C5.48996705 2.03439946 9.98764493 5.10805861 14.8125 8.375 C16.13797852 9.24125 16.13797852 9.24125 17.49023438 10.125 C18.32490234 10.68960937 19.15957031 11.25421875 20.01953125 11.8359375 C20.78370361 12.34688965 21.54787598 12.8578418 22.33520508 13.38427734 C22.8845874 13.91746582 23.43396973 14.4506543 24 15 C24 19 24 19 22.35546875 20.74609375 C21.64003906 21.30425781 20.92460937 21.86242187 20.1875 22.4375 C15.91973943 25.96631969 12.80659395 29.35384232 12 35 C11.62890702 40.75194119 12.00458309 43.93083292 15 49 C15.4640625 50.11375 15.4640625 50.11375 15.9375 51.25 C16.85499003 53.11846451 16.85499003 53.11846451 18.6875 53.81640625 C21.77725419 55.3978176 24.35930326 57.53582904 27.0625 59.6875 C31.90981195 63.47951316 36.8394132 66.93174689 42.078125 70.171875 C45.47459184 72.29693714 48.79959215 74.51605241 52.125 76.75 C56.90323966 79.95640175 61.70986644 83.11109738 66.55419922 86.21679688 C73.88340174 90.91713489 81.05339479 95.7421967 88 101 C88.76441406 101.57105469 89.52882813 102.14210938 90.31640625 102.73046875 C119.8736035 125.19393866 144.31943253 157.88985215 150.37280273 195.30419922 C151.01803519 200.5723593 151.18295154 205.82150101 151.1875 211.125 C151.19974609 211.88425781 151.21199219 212.64351562 151.22460938 213.42578125 C151.23727554 218.33180854 150.56170149 222.34575921 149 227 C119.64799489 223.32307495 94.61179762 205.30560264 75.6875 183.3125 C67.64174503 172.28683579 58 154.95565696 58 141 C75.3199772 142.97349065 92.34316722 160.12600886 104.484375 171.66015625 C106.90121504 173.90811772 109.39685048 175.97272708 112 178 C97.00824962 147.42423256 74.09494912 129.27672631 46.29589844 110.54785156 C-9.90484214 72.65836887 -9.90484214 72.65836887 -15 48 C-16.29909482 30.81651852 -13.41163723 18.34326287 -4 4 C-1.74609375 1.5859375 -1.74609375 1.5859375 0 0 Z " fill="#4465E6" transform="translate(475,463)"/>
<path d="M0 0 C6.27483375 26.79081191 -0.77799154 57.77639679 -14.8046875 81.07861328 C-22.61172546 93.62791653 -31.65239348 104.48250271 -42 115 C-42.89847656 115.93714844 -43.79695312 116.87429688 -44.72265625 117.83984375 C-49.94884947 123.21512013 -55.47572361 128.01826257 -61.34570312 132.67529297 C-63.2702282 134.21638994 -65.17450015 135.78081979 -67.078125 137.34765625 C-67.7882373 137.9305542 -68.49834961 138.51345215 -69.22998047 139.11401367 C-70.63156801 140.26466823 -72.03169875 141.41710021 -73.43017578 142.5715332 C-82.57094467 150.03993368 -82.57094467 150.03993368 -85.95703125 149.9453125 C-88.84479892 148.60909878 -91.16879625 146.81752969 -93.6875 144.875 C-94.20989258 144.47482666 -94.73228516 144.07465332 -95.27050781 143.66235352 C-96.85209918 142.44817577 -98.42610633 141.22413952 -100 140 C-101.37865234 138.93458984 -101.37865234 138.93458984 -102.78515625 137.84765625 C-104.86194323 136.23822863 -106.93366134 134.62280637 -109 133 C-108.66397879 130.20796923 -108.21593709 129.18726134 -106.05859375 127.31640625 C-105.19363281 126.73761719 -104.32867188 126.15882813 -103.4375 125.5625 C-91.81851472 117.43975932 -81.06079461 108.29605192 -70.76953125 98.55859375 C-68 96 -68 96 -65.58984375 94.234375 C-61.71068106 90.8876464 -58.80848185 86.90490564 -55.75 82.8125 C-54.76181274 81.49620605 -54.76181274 81.49620605 -53.75366211 80.15332031 C-47.91204826 72.20030564 -43.24825334 63.88794465 -39 55 C-42.52118234 57.75762847 -45.84537739 60.64773038 -49.125 63.6875 C-53.63524162 67.80685401 -58.23530404 71.75579201 -62.99609375 75.58203125 C-65.19490986 77.35194955 -67.3699746 79.1391758 -69.53515625 80.94921875 C-90.1142409 98 -90.1142409 98 -98 98 C-97.53154488 91.0430919 -95.99653625 85.54739972 -93.1875 79.1875 C-92.79224121 78.28386719 -92.39698242 77.38023437 -91.98974609 76.44921875 C-77.21085314 43.64520203 -53.05731508 18.64628394 -19.72265625 4.62109375 C-17.16493201 3.67027994 -14.60744667 2.80263239 -12 2 C-11.32453125 1.77699219 -10.6490625 1.55398438 -9.953125 1.32421875 C-6.55575123 0.25709494 -3.55755211 -0.21560922 0 0 Z " fill="#4566E7" transform="translate(634,297)"/>
<path d="M0 0 C2.28876919 1.48616388 4.4563038 2.9821153 6.578125 4.69921875 C8.97797125 6.62874337 11.37200081 8.54447208 13.83984375 10.38671875 C14.64035156 10.98484375 15.44085938 11.58296875 16.265625 12.19921875 C16.99652344 12.73933594 17.72742188 13.27945313 18.48046875 13.8359375 C20.42637794 15.60083188 21.32629537 17.10418052 22.328125 19.51171875 C21.68875 19.61484375 21.049375 19.71796875 20.390625 19.82421875 C19.71 20.05109375 19.029375 20.27796875 18.328125 20.51171875 C17.833125 21.99671875 17.833125 21.99671875 17.328125 23.51171875 C14.14343029 25.84716154 10.91432725 27.85654848 7.328125 29.51171875 C7.328125 30.17171875 7.328125 30.83171875 7.328125 31.51171875 C1.85193452 36.51171875 1.85193452 36.51171875 -0.671875 36.51171875 C-1.001875 37.50171875 -1.331875 38.49171875 -1.671875 39.51171875 C-3.30859375 41.08984375 -3.30859375 41.08984375 -5.359375 42.76171875 C-8.80296016 45.66125455 -11.66513229 48.69309324 -14.4453125 52.2265625 C-14.85007812 52.65066406 -15.25484375 53.07476563 -15.671875 53.51171875 C-16.331875 53.51171875 -16.991875 53.51171875 -17.671875 53.51171875 C-17.671875 54.17171875 -17.671875 54.83171875 -17.671875 55.51171875 C-19.33277471 57.18413249 -21.00046002 58.84981396 -22.671875 60.51171875 C-24.03636923 62.37048064 -25.3488323 64.26844885 -26.609375 66.19921875 C-27.28871094 67.23949219 -27.96804688 68.27976562 -28.66796875 69.3515625 C-31.41912538 73.69013114 -34.08096101 78.07575994 -36.671875 82.51171875 C-35.95 81.92648437 -35.228125 81.34125 -34.484375 80.73828125 C-31.92477469 78.71193101 -29.32516241 76.7877021 -26.671875 74.88671875 C-22.58633585 71.94208814 -18.6168115 68.89150255 -14.671875 65.76171875 C-9.1943861 61.49553257 -3.49397943 57.60414227 2.328125 53.82421875 C3.14152344 53.28249023 3.95492187 52.74076172 4.79296875 52.18261719 C5.56769531 51.68922852 6.34242188 51.19583984 7.140625 50.6875 C7.82769531 50.24317627 8.51476562 49.79885254 9.22265625 49.34106445 C11.93178215 48.27393775 13.57329745 48.7289607 16.328125 49.51171875 C13.14210383 73.6684166 -2.39010061 96.67460414 -21.421875 111.57421875 C-36.59610567 122.45613716 -54.50036188 133.01551488 -73.671875 133.51171875 C-76.2774366 129.60337636 -75.97377137 126.29355829 -75.921875 121.76171875 C-75.91438232 120.90698975 -75.90688965 120.05226074 -75.89916992 119.17163086 C-75.77100556 111.49680495 -75.09030759 104.06411778 -73.671875 96.51171875 C-73.53716797 95.77937012 -73.40246094 95.04702148 -73.26367188 94.29248047 C-68.52912673 69.66157297 -56.630237 47.99675958 -38.671875 30.51171875 C-37.57699184 29.38647901 -36.48475202 28.25866387 -35.39453125 27.12890625 C-27.31490454 18.83491307 -18.99947468 11.37157968 -9.671875 4.51171875 C-9.08277344 4.02219727 -8.49367188 3.53267578 -7.88671875 3.02832031 C-3.33715149 -0.60985956 -3.33715149 -0.60985956 0 0 Z " fill="#4566E6" transform="translate(476.671875,555.48828125)"/>
<path d="M0 0 C1.16402344 -0.01385742 2.32804688 -0.02771484 3.52734375 -0.04199219 C5.16316406 -0.03280762 5.16316406 -0.03280762 6.83203125 -0.0234375 C7.81534424 -0.02005371 8.79865723 -0.01666992 9.81176758 -0.01318359 C10.59575928 0.11491699 11.37975098 0.24301758 12.1875 0.375 C14.1875 3.375 14.1875 3.375 14.0390625 5.5859375 C12.91954974 9.25259857 11.30013642 12.59667396 9.5625 16 C9.0207312 17.06395996 9.0207312 17.06395996 8.46801758 18.14941406 C-2.27367435 38.95864302 -17.95204265 56.2203035 -40.29296875 64.6953125 C-50.47485809 67.92729957 -60.33507509 68.32428835 -70.8125 66.375 C-70.8125 65.385 -70.8125 64.395 -70.8125 63.375 C-68.69227711 61.81876243 -66.62579878 60.46595633 -64.375 59.125 C-58.55395272 55.52975537 -53.12435605 51.69728116 -47.8125 47.375 C-46.905 46.694375 -45.9975 46.01375 -45.0625 45.3125 C-42.63611359 43.33047527 -42.63611359 43.33047527 -40.3125 40.375 C-37.99421126 37.59305351 -35.65498582 35.5858223 -32.8125 33.375 C-32.3175 32.385 -32.3175 32.385 -31.8125 31.375 C-44.68967024 37.42388128 -57.49903254 43.47099898 -69.80078125 50.6328125 C-76.2698991 54.375 -76.2698991 54.375 -79.8125 54.375 C-77.85014454 42.40463167 -71.69562855 33.38428977 -63.8125 24.375 C-62.84763672 23.21484375 -62.84763672 23.21484375 -61.86328125 22.03125 C-55.3876125 14.82783943 -47.50576155 11.24690552 -38.8125 7.375 C-37.91273438 6.9521875 -37.01296875 6.529375 -36.0859375 6.09375 C-24.4348747 0.95013699 -12.5637073 0.0925819 0 0 Z " fill="#4767E5" transform="translate(666.8125,439.625)"/>
<path d="M0 0 C8.55763575 7.96295259 16.13092884 19.31830524 18 31 C12.42625644 30.44972595 8.17767511 28.34313745 3.25 25.875 C-5.9764723 21.36659981 -15.3789043 17.57486352 -25 14 C-20.82275814 18.40977222 -16.23942936 22.10260446 -11.4375 25.8125 C-10.64553223 26.42834961 -9.85356445 27.04419922 -9.03759766 27.67871094 C-3.52088344 31.93059569 2.09478381 35.86124736 8.0078125 39.546875 C8.99394531 40.26617187 8.99394531 40.26617187 10 41 C10 41.66 10 42.32 10 43 C-2.03520049 47.0117335 -16.83767519 44.17502148 -28 39 C-36.00783602 34.81974363 -42.50733199 29.21773418 -49 23 C-49.75023437 22.32453125 -50.50046875 21.6490625 -51.2734375 20.953125 C-62.95828902 10.04726358 -72.43800901 -5.11565585 -75 -21 C-58.25685766 -37.74314234 -12.90482385 -11.19941797 0 0 Z " fill="#4566E5" transform="translate(420,462)"/>
<path d="M0 0 C0.66 0.33 1.32 0.66 2 1 C-8.89 11.89 -19.78 22.78 -31 34 C-31.66 33.67 -32.32 33.34 -33 33 C-29.04310824 27.54690855 -25.00835706 22.91964442 -19.828125 18.609375 C-17.77504677 16.80196425 -16.16969976 14.75643257 -14.484375 12.609375 C-11.75046538 9.64524141 -8.49126052 7.28733903 -5.3046875 4.83203125 C-3.3900363 3.31004581 -1.6788941 1.77216599 0 0 Z " fill="#2C4389" transform="translate(345,282)"/>
<path d="M0 0 C0.66 0.33 1.32 0.66 2 1 C0.29798107 2.756532 -1.41115103 4.50507087 -3.125 6.25 C-3.599375 6.74113281 -4.07375 7.23226563 -4.5625 7.73828125 C-7.8004632 11.02000071 -11.08565821 13.56079592 -15 16 C-11.96900954 9.20998706 -5.68240917 4.57364641 0 0 Z " fill="#899FDA" transform="translate(580,322)"/>
<path d="M0 0 C0.33 0.66 0.66 1.32 1 2 C-0.32 2.33 -1.64 2.66 -3 3 C-2.01 2.01 -1.02 1.02 0 0 Z " fill="#E6E6E6" transform="translate(581,365)"/>
<path d="" fill="#E2E2E2" transform="translate(0,0)"/>
<path d="" fill="#000000" transform="translate(0,0)"/>
<path d="" fill="#000000" transform="translate(0,0)"/>
<path d="" fill="#EFEFEF" transform="translate(0,0)"/>
<path d="" fill="#D6D6D6" transform="translate(0,0)"/>
<path d="" fill="#EFEFEF" transform="translate(0,0)"/>
<path d="" fill="#D3D3D3" transform="translate(0,0)"/>
</svg>
